<?xml version="1.0" encoding="UTF-8"?>
<!-- Generated by Pixelmator Pro 3.7.1 -->
<svg width="174" height="220" viewBox="0 0 174 220" xmlns="http://www.w3.org/2000/svg">
    <g id="Group-copy">
        <g id="Group">
            <g id="g1">
                <g id="g2">
                    <path id="Shape" fill="#000000" fill-rule="evenodd" stroke="none" d="M 82.75 45.25 C 71.013969 56.986038 71.013947 76.013947 82.75 87.75 L 104 109 L 125.25 87.75 C 136.986038 76.013962 136.986053 56.986053 125.25 45.25 C 113.513947 33.513947 94.486031 33.513962 82.75 45.25 Z M 91.975395 55.980759 C 85.334404 62.62175 85.334389 73.388947 91.975395 80.029968 L 104 92.054565 L 116.024605 80.029968 C 122.665596 73.388962 122.665611 62.621765 116.024605 55.980759 C 109.383598 49.339752 98.616386 49.339752 91.975395 55.980759 Z"/>
                    <path id="Shape-copy-3" fill="#000000" fill-rule="evenodd" stroke="none" d="M 159.75 84.75 C 148.013962 73.013977 128.986053 73.013947 117.25 84.75 L 96 106 L 117.25 127.25 C 128.986038 138.986038 148.013947 138.986053 159.75 127.25 C 171.486053 115.513947 171.486038 96.486031 159.75 84.75 Z M 149.019241 93.975395 C 142.37825 87.334396 131.611053 87.334381 124.970039 93.975395 L 112.945435 106 L 124.970039 118.024605 C 131.611038 124.665596 142.378235 124.665611 149.019241 118.024605 C 155.660248 111.383598 155.660248 100.616386 149.019241 93.975395 Z"/>
                    <path id="Shape-copy-4" fill="#000000" fill-rule="evenodd" stroke="none" d="M 49.802032 127.25 C 61.538071 138.986023 80.565979 138.986053 92.302032 127.25 L 113.552032 106 L 92.302032 84.75 C 80.565994 73.013962 61.538086 73.013947 49.802032 84.75 C 38.065979 96.486053 38.065994 115.513969 49.802032 127.25 Z M 60.532784 118.024605 C 67.173782 124.665596 77.940987 124.665611 84.581993 118.024605 L 96.606598 106 L 84.581993 93.975395 C 77.941002 87.334396 67.17379 87.334381 60.532784 93.975395 C 53.891777 100.616402 53.891792 111.383614 60.532784 118.024605 Z"/>
                </g>
                <g id="g3">
                    <g id="g4">
                        <path id="Rectangle" fill="#000000" fill-rule="evenodd" stroke="none" d="M 98 211 L 110 211 L 110 106 L 98 106 Z"/>
                        <path id="path1" fill="#000000" fill-rule="evenodd" stroke="none" d="M 104 219.485275 L 113.242638 210.242645 L 104 201 L 94.757362 210.242645 Z"/>
                    </g>
                    <g id="g5">
                        <path id="path2" fill="#000000" fill-rule="evenodd" stroke="none" d="M 137.757355 182.242645 L 137.757355 170.242645 L 71 170.242645 L 71 182.242645 Z"/>
                        <path id="path3" fill="#000000" fill-rule="evenodd" stroke="none" d="M 80.242638 176.242645 L 71 167 L 61.757359 176.242645 L 71 185.485291 Z"/>
                        <path id="Rectangle-copy" fill="#000000" fill-rule="evenodd" stroke="none" d="M 147.242645 176.242645 L 138 167 L 128.757355 176.242645 L 138 185.485291 Z"/>
                    </g>
                    <g id="Group-copy-2">
                        <path id="path4" fill="#000000" fill-rule="evenodd" stroke="none" d="M 154 159.242645 L 154 147.242645 L 56.757362 147.242645 L 56.757362 159.242645 Z"/>
                        <path id="path5" fill="#000000" fill-rule="evenodd" stroke="none" d="M 66.242638 153.242645 L 57 144 L 47.757359 153.242645 L 57 162.485291 Z"/>
                        <path id="path6" fill="#000000" fill-rule="evenodd" stroke="none" d="M 161.242645 153.242645 L 152 144 L 142.757355 153.242645 L 152 162.485291 Z"/>
                    </g>
                </g>
            </g>
            <g id="g6">
                <g id="g7">
                    <g id="g8">
                        <path id="path7" fill="#000000" fill-rule="evenodd" stroke="none" d="M 5.31319 16.212677 L 13.79847 7.727402 L 88.044685 81.973618 L 79.559402 90.458893 Z"/>
                        <path id="path8" fill="#000000" fill-rule="evenodd" stroke="none" d="M 3.55583 5.970047 L 16.626898 5.970047 L 16.626898 19.041107 L 3.55583 19.041107 Z"/>
                    </g>
                    <g id="g9">
                        <path id="path9" fill="#000000" fill-rule="evenodd" stroke="none" d="M 53.76041 8.434509 L 62.245693 16.919785 L 15.041109 64.124374 L 6.555828 55.639099 Z"/>
                        <path id="path10" fill="#000000" fill-rule="evenodd" stroke="none" d="M 17.334005 53.346191 L 17.334005 66.417267 L 4.262937 66.417267 L 4.262937 53.346191 Z"/>
                        <path id="path11" fill="#000000" fill-rule="evenodd" stroke="none" d="M 64.710159 5.970047 L 64.710159 19.041107 L 51.639091 19.041107 L 51.639091 5.970047 Z"/>
                    </g>
                    <g id="g10">
                        <path id="path12" fill="#000000" fill-rule="evenodd" stroke="none" d="M 81.509148 13.212677 L 89.994431 21.697968 L 21.233501 90.458893 L 12.74822 81.973618 Z"/>
                        <path id="path13" fill="#000000" fill-rule="evenodd" stroke="none" d="M 23.697966 79.509155 L 23.697966 92.580215 L 10.626898 92.580215 L 10.626898 79.509155 Z"/>
                        <path id="path14" fill="#000000" fill-rule="evenodd" stroke="none" d="M 90.873108 12.334 L 90.873108 25.405075 L 77.80204 25.405075 L 77.80204 12.334 Z"/>
                    </g>
                </g>
            </g>
        </g>
    </g>
</svg>
