<?xml version="1.0" encoding="UTF-8"?>
<!-- Generated by Pixelmator Pro 3.7.1 -->
<svg width="250" height="250" viewBox="0 0 250 250" xmlns="http://www.w3.org/2000/svg">
    <g id="Group-copy" opacity="0.246658">
        <g id="Group">
            <g id="g1">
                <g id="g2">
                    <path id="Shape" fill="#000000" fill-rule="evenodd" stroke="none" d="M 120.75 58.25 C 109.013969 69.986038 109.013947 89.013947 120.75 100.75 L 142 122 L 163.25 100.75 C 174.986038 89.013962 174.986053 69.986053 163.25 58.25 C 151.513947 46.513947 132.486023 46.513962 120.75 58.25 Z M 129.975388 68.980759 C 123.334404 75.62175 123.334389 86.388947 129.975388 93.029968 L 142 105.054565 L 154.024597 93.029968 C 160.665588 86.388962 160.665604 75.621765 154.024597 68.980759 C 147.383591 62.339752 136.616379 62.339752 129.975388 68.980759 Z"/>
                    <path id="Shape-copy-3" fill="#000000" fill-rule="evenodd" stroke="none" d="M 197.75 97.75 C 186.013962 86.013977 166.986053 86.013947 155.25 97.75 L 134 119 L 155.25 140.25 C 166.986038 151.986038 186.013947 151.986053 197.75 140.25 C 209.486053 128.513947 209.486038 109.486038 197.75 97.75 Z M 187.019241 106.975403 C 180.37825 100.334396 169.611053 100.334381 162.970032 106.975403 L 150.945435 119 L 162.970032 131.024597 C 169.611038 137.665588 180.378235 137.665619 187.019241 131.024597 C 193.660248 124.383598 193.660248 113.616394 187.019241 106.975403 Z"/>
                    <path id="Shape-copy-4" fill="#000000" fill-rule="evenodd" stroke="none" d="M 87.802032 140.25 C 99.538071 151.986023 118.565979 151.986053 130.302032 140.25 L 151.552032 119 L 130.302032 97.75 C 118.565994 86.013962 99.538086 86.013947 87.802032 97.75 C 76.065979 109.486053 76.065994 128.513977 87.802032 140.25 Z M 98.532784 131.024597 C 105.173782 137.665588 115.940987 137.665619 122.581993 131.024597 L 134.606598 119 L 122.581993 106.975403 C 115.941002 100.334396 105.17379 100.334381 98.532784 106.975403 C 91.891777 113.616409 91.891792 124.383614 98.532784 131.024597 Z"/>
                </g>
                <g id="g3">
                    <g id="g4">
                        <path id="Rectangle" fill="#000000" fill-rule="evenodd" stroke="none" d="M 136 224 L 148 224 L 148 119 L 136 119 Z"/>
                        <path id="path1" fill="#000000" fill-rule="evenodd" stroke="none" d="M 142 232.485275 L 151.242645 223.242645 L 142 214 L 132.75737 223.242645 Z"/>
                    </g>
                    <g id="g5">
                        <path id="path2" fill="#000000" fill-rule="evenodd" stroke="none" d="M 175.757355 195.242645 L 175.757355 183.242645 L 109 183.242645 L 109 195.242645 Z"/>
                        <path id="path3" fill="#000000" fill-rule="evenodd" stroke="none" d="M 118.242638 189.242645 L 109 180 L 99.757362 189.242645 L 109 198.485291 Z"/>
                        <path id="Rectangle-copy" fill="#000000" fill-rule="evenodd" stroke="none" d="M 185.242645 189.242645 L 176 180 L 166.757355 189.242645 L 176 198.485291 Z"/>
                    </g>
                    <g id="Group-copy-2">
                        <path id="path4" fill="#000000" fill-rule="evenodd" stroke="none" d="M 192 172.242645 L 192 160.242645 L 94.757362 160.242645 L 94.757362 172.242645 Z"/>
                        <path id="path5" fill="#000000" fill-rule="evenodd" stroke="none" d="M 104.242638 166.242645 L 95 157 L 85.757355 166.242645 L 95 175.485291 Z"/>
                        <path id="path6" fill="#000000" fill-rule="evenodd" stroke="none" d="M 199.242645 166.242645 L 190 157 L 180.757355 166.242645 L 190 175.485291 Z"/>
                    </g>
                </g>
            </g>
            <g id="g6">
                <g id="g7">
                    <g id="g8">
                        <path id="path7" fill="#000000" fill-rule="evenodd" stroke="none" d="M 43.31319 29.212677 L 51.79847 20.727402 L 126.044685 94.973618 L 117.559402 103.458893 Z"/>
                        <path id="path8" fill="#000000" fill-rule="evenodd" stroke="none" d="M 41.555832 18.970047 L 54.6269 18.970047 L 54.6269 32.041107 L 41.555832 32.041107 Z"/>
                    </g>
                    <g id="g9">
                        <path id="path9" fill="#000000" fill-rule="evenodd" stroke="none" d="M 91.760414 21.434509 L 100.245697 29.919785 L 53.041111 77.124374 L 44.555828 68.639099 Z"/>
                        <path id="path10" fill="#000000" fill-rule="evenodd" stroke="none" d="M 55.334007 66.346191 L 55.334007 79.417267 L 42.262936 79.417267 L 42.262936 66.346191 Z"/>
                        <path id="path11" fill="#000000" fill-rule="evenodd" stroke="none" d="M 102.710159 18.970047 L 102.710159 32.041107 L 89.639091 32.041107 L 89.639091 18.970047 Z"/>
                    </g>
                    <g id="g10">
                        <path id="path12" fill="#000000" fill-rule="evenodd" stroke="none" d="M 119.509148 26.212677 L 127.994431 34.697968 L 59.233501 103.458893 L 50.748222 94.973618 Z"/>
                        <path id="path13" fill="#000000" fill-rule="evenodd" stroke="none" d="M 61.697968 92.509155 L 61.697968 105.580215 L 48.6269 105.580215 L 48.6269 92.509155 Z"/>
                        <path id="path14" fill="#000000" fill-rule="evenodd" stroke="none" d="M 128.873108 25.334 L 128.873108 38.405075 L 115.80204 38.405075 L 115.80204 25.334 Z"/>
                    </g>
                </g>
            </g>
        </g>
    </g>
</svg>
